<?xml version="1.0" encoding="UTF-8"?>
<!DOCTYPE svg PUBLIC "-//W3C//DTD SVG 1.1//EN" "http://www.w3.org/Graphics/SVG/1.1/DTD/svg11.dtd">
<svg xmlns="http://www.w3.org/2000/svg" version="1.1" width="640px" height="640px" style="shape-rendering:geometricPrecision; text-rendering:geometricPrecision; image-rendering:optimizeQuality; fill-rule:evenodd; clip-rule:evenodd" xmlns:xlink="http://www.w3.org/1999/xlink">
<g><path style="opacity:1" fill="#d7ab4c" d="M 281.5,128.5 C 279.631,130.635 278.964,133.302 279.5,136.5C 278.194,133.313 278.194,129.98 279.5,126.5C 280.522,126.855 281.189,127.522 281.5,128.5 Z"/></g>
<g><path style="opacity:1" fill="#e7bc38" d="M 282.5,128.5 C 287.543,131.015 292.21,134.015 296.5,137.5C 291.937,135.714 287.604,133.714 283.5,131.5C 282.89,130.609 282.557,129.609 282.5,128.5 Z"/></g>
<g><path style="opacity:1" fill="#febb01" d="M 302.5,143.5 C 303.219,145.091 304.219,146.591 305.5,148C 308.636,149.322 311.636,150.822 314.5,152.5C 314.833,152.5 315.167,152.5 315.5,152.5C 315.714,154.144 315.38,155.644 314.5,157C 320.578,159.077 324.745,163.244 327,169.5C 328.154,170.743 329.488,171.743 331,172.5C 331.333,174.167 331.667,175.833 332,177.5C 333.156,176.007 333.99,176.174 334.5,178C 335.373,182.545 337.54,186.379 341,189.5C 341.165,193.548 342.998,196.215 346.5,197.5C 346.292,201.085 347.625,203.751 350.5,205.5C 350.337,207.857 350.503,210.19 351,212.5C 355.074,221.056 358.407,230.056 361,239.5C 362.547,254.198 364.047,268.865 365.5,283.5C 368.977,283.678 372.31,284.345 375.5,285.5C 378.393,285.931 380.393,284.931 381.5,282.5C 381.833,282.5 382.167,282.5 382.5,282.5C 385.167,281.833 386.833,280.167 387.5,277.5C 388.708,276.766 390.041,276.433 391.5,276.5C 391.4,273.892 392.067,271.558 393.5,269.5C 394.794,268.71 395.961,267.71 397,266.5C 397.414,266.957 397.914,267.291 398.5,267.5C 398.975,264.845 400.309,262.845 402.5,261.5C 403.117,261.389 403.617,261.056 404,260.5C 404.021,254.148 406.355,248.815 411,244.5C 411.167,244.833 411.333,245.167 411.5,245.5C 410.385,246.598 410.385,247.765 411.5,249C 409.084,250.474 408.084,252.64 408.5,255.5C 410.201,255.034 411.701,255.034 413,255.5C 413.495,253.527 413.662,251.527 413.5,249.5C 414.959,249.433 416.292,249.766 417.5,250.5C 418.708,251.234 420.041,251.567 421.5,251.5C 423.167,252.5 424.5,253.833 425.5,255.5C 426.691,260.91 429.691,264.91 434.5,267.5C 435.765,273.135 438.265,278.135 442,282.5C 442.494,284.134 442.66,285.801 442.5,287.5C 443.833,287.5 445.167,287.5 446.5,287.5C 449.065,291.844 451.065,296.51 452.5,301.5C 454.338,310.866 456.338,320.199 458.5,329.5C 458.667,341.838 458.5,354.171 458,366.5C 455.688,361.846 454.854,356.846 455.5,351.5C 454.5,351.5 453.5,351.5 452.5,351.5C 452.951,356.652 453.117,361.652 453,366.5C 454.205,367.071 455.372,367.738 456.5,368.5C 455.507,377.144 453.507,385.477 450.5,393.5C 450.492,396.545 450.159,399.545 449.5,402.5C 449.5,402.833 449.5,403.167 449.5,403.5C 447.896,404.287 447.229,405.62 447.5,407.5C 444.259,409.983 442.592,413.316 442.5,417.5C 441.883,417.389 441.383,417.056 441,416.5C 438.997,419.222 436.997,421.888 435,424.5C 434.023,426.74 433.523,429.073 433.5,431.5C 432.5,431.5 431.5,431.5 430.5,431.5C 429.606,434.732 427.606,437.065 424.5,438.5C 421.323,442.304 418.823,441.637 417,436.5C 414.696,440.007 415.196,443.007 418.5,445.5C 417.624,446.251 416.624,446.751 415.5,447C 416.756,447.417 417.423,448.25 417.5,449.5C 416.127,449.343 414.793,449.51 413.5,450C 413.833,450.333 414.167,450.667 414.5,451C 411.446,452.54 408.779,454.707 406.5,457.5C 404.631,458.624 402.631,459.457 400.5,460C 399.663,461.011 399.33,462.178 399.5,463.5C 395.154,463.334 390.821,463.501 386.5,464C 384.939,464.318 383.772,465.151 383,466.5C 380.915,465.353 379.415,466.02 378.5,468.5C 379.5,469.333 380.5,470.167 381.5,471C 379.316,471.867 377.149,472.701 375,473.5C 374.167,473.333 373.333,473.167 372.5,473C 371.253,471.054 369.92,469.22 368.5,467.5C 367.632,470.667 367.632,474 368.5,477.5C 368.196,478.15 367.863,478.817 367.5,479.5C 361.691,479.994 356.357,481.661 351.5,484.5C 346.628,485.029 341.961,486.363 337.5,488.5C 324.185,491.005 310.852,491.005 297.5,488.5C 298.66,486.797 297.993,486.131 295.5,486.5C 297.3,484.95 299.467,483.95 302,483.5C 306.62,485.989 311.286,485.989 316,483.5C 317.281,483.381 318.448,483.881 319.5,485C 322.167,485.667 324.833,485.667 327.5,485C 324.456,484.641 324.122,483.974 326.5,483C 326.167,482.667 325.833,482.333 325.5,482C 314.63,481.822 303.797,481.655 293,481.5C 290.065,481.334 287.398,482.001 285,483.5C 282.065,481.808 278.898,481.142 275.5,481.5C 274.041,481.567 272.708,481.234 271.5,480.5C 269.26,479.736 266.927,478.902 264.5,478C 262.039,473.888 258.372,471.888 253.5,472C 259.213,468.184 258.546,466.351 251.5,466.5C 251.5,467.5 251.5,468.5 251.5,469.5C 250.5,469.5 249.5,469.5 248.5,469.5C 246.519,468.314 244.519,466.981 242.5,465.5C 240.223,464.579 237.89,463.913 235.5,463.5C 233.503,458.499 229.836,455.832 224.5,455.5C 222.789,451.789 220.123,449.122 216.5,447.5C 216.473,445.801 215.806,444.467 214.5,443.5C 215.451,442.081 215.784,440.415 215.5,438.5C 212.656,437.828 210.156,436.495 208,434.5C 207.601,434.728 207.435,435.062 207.5,435.5C 204.673,430.53 201.34,425.863 197.5,421.5C 197.261,419.533 197.594,417.699 198.5,416C 196.655,414.872 194.655,414.372 192.5,414.5C 191.846,408.804 189.846,403.804 186.5,399.5C 187.361,393.988 186.027,389.155 182.5,385C 184.361,383.972 185.695,382.472 186.5,380.5C 185.561,376.235 185.228,371.902 185.5,367.5C 182.355,368.077 180.855,370.077 181,373.5C 179.374,370.681 179.207,367.681 180.5,364.5C 179.11,357.55 178.11,350.55 177.5,343.5C 178.993,335.674 179.827,327.674 180,319.5C 180.113,317.026 181.113,315.026 183,313.5C 183.497,310.854 183.664,308.187 183.5,305.5C 183.5,304.833 183.5,304.167 183.5,303.5C 185.176,302.817 185.843,301.483 185.5,299.5C 186.5,299.5 187.5,299.5 188.5,299.5C 189.554,294.893 190.221,290.227 190.5,285.5C 192.433,284.358 193.933,282.692 195,280.5C 195.49,279.207 195.657,277.873 195.5,276.5C 200.072,273.422 203.239,269.089 205,263.5C 207.445,262.094 209.945,260.76 212.5,259.5C 213.79,257.343 214.624,255.01 215,252.5C 217.926,251.731 220.093,250.065 221.5,247.5C 223.335,248.122 224.502,249.456 225,251.5C 228.059,247.864 231.226,244.364 234.5,241C 233.09,240.632 232.09,239.799 231.5,238.5C 235.736,237.097 238.902,234.431 241,230.5C 242.073,231.28 243.24,231.113 244.5,230C 243.984,227.967 244.65,227.967 246.5,230C 245.663,231.011 245.33,232.178 245.5,233.5C 243.833,233.5 242.167,233.5 240.5,233.5C 240.5,234.5 240.5,235.5 240.5,236.5C 244.131,236.84 247.464,236.006 250.5,234C 251.193,231.448 252.527,229.281 254.5,227.5C 253.754,226.264 253.421,224.93 253.5,223.5C 254.5,223.5 255.5,223.5 256.5,223.5C 256.753,221.173 256.086,219.173 254.5,217.5C 255.631,216.396 256.465,216.729 257,218.5C 259.582,217.716 261.249,216.049 262,213.5C 262.333,213.833 262.667,214.167 263,214.5C 264.559,212.783 265.392,210.783 265.5,208.5C 266.833,208.5 268.167,208.5 269.5,208.5C 269.474,205.124 270.141,201.958 271.5,199C 270.893,195.857 270.559,192.69 270.5,189.5C 271.301,187.958 271.634,186.292 271.5,184.5C 274.46,181.9 275.794,178.567 275.5,174.5C 276.35,169.44 277.35,164.44 278.5,159.5C 280.176,158.817 280.843,157.483 280.5,155.5C 282.173,154.657 283.34,153.324 284,151.5C 282.741,145.023 285.241,141.19 291.5,140C 290.346,139.086 290.513,138.253 292,137.5C 294.547,138.473 296.047,140.307 296.5,143C 298.473,143.495 300.473,143.662 302.5,143.5 Z"/></g>
<g><path style="opacity:1" fill="#f9bd0e" d="M 283.5,131.5 C 287.604,133.714 291.937,135.714 296.5,137.5C 298.795,138.475 300.795,139.808 302.5,141.5C 302.5,142.167 302.5,142.833 302.5,143.5C 300.473,143.662 298.473,143.495 296.5,143C 296.047,140.307 294.547,138.473 292,137.5C 290.513,138.253 290.346,139.086 291.5,140C 285.241,141.19 282.741,145.023 284,151.5C 283.34,153.324 282.173,154.657 280.5,155.5C 280.334,147.16 280.5,138.827 281,130.5C 281.671,131.252 282.504,131.586 283.5,131.5 Z"/></g>
<g><path style="opacity:1" fill="#f0bc2f" d="M 302.5,141.5 C 307.126,144.458 311.126,148.124 314.5,152.5C 311.636,150.822 308.636,149.322 305.5,148C 304.219,146.591 303.219,145.091 302.5,143.5C 302.5,142.833 302.5,142.167 302.5,141.5 Z"/></g>
<g><path style="opacity:1" fill="#efbc2b" d="M 281.5,128.5 C 281.833,128.5 282.167,128.5 282.5,128.5C 282.557,129.609 282.89,130.609 283.5,131.5C 282.504,131.586 281.671,131.252 281,130.5C 280.5,138.827 280.334,147.16 280.5,155.5C 280.843,157.483 280.176,158.817 278.5,159.5C 279.07,151.846 279.404,144.179 279.5,136.5C 278.964,133.302 279.631,130.635 281.5,128.5 Z"/></g>
<g><path style="opacity:1" fill="#e9ba39" d="M 275.5,174.5 C 275.794,178.567 274.46,181.9 271.5,184.5C 272.321,180.873 273.654,177.54 275.5,174.5 Z"/></g>
<g><path style="opacity:1" fill="#eabe27" d="M 315.5,152.5 C 325.417,161.747 333.417,172.414 339.5,184.5C 339.427,186.027 340.094,187.027 341.5,187.5C 343.674,190.515 345.341,193.849 346.5,197.5C 342.998,196.215 341.165,193.548 341,189.5C 337.54,186.379 335.373,182.545 334.5,178C 333.99,176.174 333.156,176.007 332,177.5C 331.667,175.833 331.333,174.167 331,172.5C 329.488,171.743 328.154,170.743 327,169.5C 324.745,163.244 320.578,159.077 314.5,157C 315.38,155.644 315.714,154.144 315.5,152.5 Z"/></g>
<g><path style="opacity:1" fill="#ddb43d" d="M 339.5,184.5 C 340.906,184.973 341.573,185.973 341.5,187.5C 340.094,187.027 339.427,186.027 339.5,184.5 Z"/></g>
<g><path style="opacity:1" fill="#ebb936" d="M 271.5,184.5 C 271.634,186.292 271.301,187.958 270.5,189.5C 267.88,193.475 265.713,197.808 264,202.5C 262.629,204.041 261.129,205.375 259.5,206.5C 263.532,199.095 267.532,191.762 271.5,184.5 Z"/></g>
<g><path style="opacity:1" fill="#eabc31" d="M 346.5,197.5 C 348.341,199.849 349.674,202.515 350.5,205.5C 347.625,203.751 346.292,201.085 346.5,197.5 Z"/></g>
<g><path style="opacity:1" fill="#e9bd36" d="M 259.5,206.5 C 259.291,207.922 258.791,209.255 258,210.5C 255.613,213.957 252.78,216.957 249.5,219.5C 252.109,214.617 255.443,210.284 259.5,206.5 Z"/></g>
<g><path style="opacity:1" fill="#ecbe26" d="M 350.5,205.5 C 361.329,227.798 366.495,251.464 366,276.5C 369.189,283.3 374.355,285.3 381.5,282.5C 380.393,284.931 378.393,285.931 375.5,285.5C 372.31,284.345 368.977,283.678 365.5,283.5C 364.047,268.865 362.547,254.198 361,239.5C 358.407,230.056 355.074,221.056 351,212.5C 350.503,210.19 350.337,207.857 350.5,205.5 Z"/></g>
<g><path style="opacity:1" fill="#f8bd0c" d="M 270.5,189.5 C 270.559,192.69 270.893,195.857 271.5,199C 270.141,201.958 269.474,205.124 269.5,208.5C 268.167,208.5 266.833,208.5 265.5,208.5C 265.392,210.783 264.559,212.783 263,214.5C 262.667,214.167 262.333,213.833 262,213.5C 261.249,216.049 259.582,217.716 257,218.5C 256.465,216.729 255.631,216.396 254.5,217.5C 256.086,219.173 256.753,221.173 256.5,223.5C 255.5,223.5 254.5,223.5 253.5,223.5C 253.421,224.93 253.754,226.264 254.5,227.5C 252.527,229.281 251.193,231.448 250.5,234C 247.464,236.006 244.131,236.84 240.5,236.5C 240.5,235.5 240.5,234.5 240.5,233.5C 242.167,233.5 243.833,233.5 245.5,233.5C 245.33,232.178 245.663,231.011 246.5,230C 244.65,227.967 243.984,227.967 244.5,230C 243.24,231.113 242.073,231.28 241,230.5C 238.902,234.431 235.736,237.097 231.5,238.5C 232.09,239.799 233.09,240.632 234.5,241C 231.226,244.364 228.059,247.864 225,251.5C 224.502,249.456 223.335,248.122 221.5,247.5C 221.733,245.938 222.4,244.605 223.5,243.5C 225.167,242.5 226.5,241.167 227.5,239.5C 231.515,235.487 235.848,231.821 240.5,228.5C 243.167,227.833 244.833,226.167 245.5,223.5C 246.5,221.833 247.833,220.5 249.5,219.5C 252.78,216.957 255.613,213.957 258,210.5C 258.791,209.255 259.291,207.922 259.5,206.5C 261.129,205.375 262.629,204.041 264,202.5C 265.713,197.808 267.88,193.475 270.5,189.5 Z"/></g>
<g><path style="opacity:1" fill="#ebbf46" d="M 245.5,223.5 C 244.833,226.167 243.167,227.833 240.5,228.5C 241.833,226.5 243.5,224.833 245.5,223.5 Z"/></g>
<g><path style="opacity:1" fill="#e2b23b" d="M 227.5,239.5 C 226.5,241.167 225.167,242.5 223.5,243.5C 223.167,243.5 222.833,243.5 222.5,243.5C 223.585,241.413 225.251,240.08 227.5,239.5 Z"/></g>
<g><path style="opacity:1" fill="#ecbe2a" d="M 421.5,251.5 C 420.041,251.567 418.708,251.234 417.5,250.5C 417.631,249.761 417.464,249.094 417,248.5C 414.819,246.736 412.652,245.069 410.5,243.5C 407.436,244.18 405.936,246.18 406,249.5C 405.292,250.381 404.458,251.047 403.5,251.5C 404.697,247.078 406.197,242.744 408,238.5C 413.003,242.336 417.503,246.67 421.5,251.5 Z"/></g>
<g><path style="opacity:1" fill="#f8bd0d" d="M 417.5,250.5 C 416.292,249.766 414.959,249.433 413.5,249.5C 413.662,251.527 413.495,253.527 413,255.5C 411.701,255.034 410.201,255.034 408.5,255.5C 408.084,252.64 409.084,250.474 411.5,249C 410.385,247.765 410.385,246.598 411.5,245.5C 411.333,245.167 411.167,244.833 411,244.5C 406.355,248.815 404.021,254.148 404,260.5C 403.617,261.056 403.117,261.389 402.5,261.5C 403.207,258.214 403.54,254.881 403.5,251.5C 404.458,251.047 405.292,250.381 406,249.5C 405.936,246.18 407.436,244.18 410.5,243.5C 412.652,245.069 414.819,246.736 417,248.5C 417.464,249.094 417.631,249.761 417.5,250.5 Z"/></g>
<g><path style="opacity:1" fill="#eebe24" d="M 222.5,243.5 C 222.833,243.5 223.167,243.5 223.5,243.5C 222.4,244.605 221.733,245.938 221.5,247.5C 220.093,250.065 217.926,251.731 215,252.5C 214.624,255.01 213.79,257.343 212.5,259.5C 209.945,260.76 207.445,262.094 205,263.5C 203.239,269.089 200.072,273.422 195.5,276.5C 202.349,263.838 211.349,252.838 222.5,243.5 Z"/></g>
<g><path style="opacity:1" fill="#e7bc35" d="M 425.5,255.5 C 429.262,258.929 432.262,262.929 434.5,267.5C 429.691,264.91 426.691,260.91 425.5,255.5 Z"/></g>
<g><path style="opacity:1" fill="#efba24" d="M 403.5,251.5 C 403.54,254.881 403.207,258.214 402.5,261.5C 400.309,262.845 398.975,264.845 398.5,267.5C 397.914,267.291 397.414,266.957 397,266.5C 395.961,267.71 394.794,268.71 393.5,269.5C 396.851,263.46 400.184,257.46 403.5,251.5 Z"/></g>
<g><path style="opacity:1" fill="#ebbb2f" d="M 393.5,269.5 C 392.067,271.558 391.4,273.892 391.5,276.5C 390.041,276.433 388.708,276.766 387.5,277.5C 389.016,274.467 391.016,271.8 393.5,269.5 Z"/></g>
<g><path style="opacity:1" fill="#efbd3d" d="M 387.5,277.5 C 386.833,280.167 385.167,281.833 382.5,282.5C 383.833,280.5 385.5,278.833 387.5,277.5 Z"/></g>
<g><path style="opacity:1" fill="#eac228" d="M 434.5,267.5 C 436.451,268.716 437.951,270.382 439,272.5C 442.038,277.243 444.538,282.243 446.5,287.5C 445.167,287.5 443.833,287.5 442.5,287.5C 442.66,285.801 442.494,284.134 442,282.5C 438.265,278.135 435.765,273.135 434.5,267.5 Z"/></g>
<g><path style="opacity:1" fill="#eebe2d" d="M 195.5,276.5 C 195.657,277.873 195.49,279.207 195,280.5C 193.933,282.692 192.433,284.358 190.5,285.5C 191.41,282.008 193.076,279.008 195.5,276.5 Z"/></g>
<g><path style="opacity:1" fill="#f2bf1a" d="M 190.5,285.5 C 190.221,290.227 189.554,294.893 188.5,299.5C 187.5,299.5 186.5,299.5 185.5,299.5C 185.843,301.483 185.176,302.817 183.5,303.5C 183.5,302.833 183.5,302.167 183.5,301.5C 184.766,295.64 187.1,290.307 190.5,285.5 Z"/></g>
<g><path style="opacity:1" fill="#e8c044" d="M 183.5,301.5 C 183.5,302.167 183.5,302.833 183.5,303.5C 183.5,304.167 183.5,304.833 183.5,305.5C 182.5,307.5 181.5,309.5 180.5,311.5C 180.723,307.838 181.723,304.505 183.5,301.5 Z"/></g>
<g><path style="opacity:1" fill="#eabc36" d="M 452.5,301.5 C 456.062,310.416 458.396,319.75 459.5,329.5C 459.167,329.5 458.833,329.5 458.5,329.5C 456.338,320.199 454.338,310.866 452.5,301.5 Z"/></g>
<g><path style="opacity:1" fill="#eabe30" d="M 178.5,319.5 C 176.857,334.781 176.191,350.115 176.5,365.5C 175.773,359.811 175.106,353.978 174.5,348C 174.974,338.25 176.307,328.75 178.5,319.5 Z"/></g>
<g><path style="opacity:1" fill="#f5be18" d="M 458.5,329.5 C 458.833,329.5 459.167,329.5 459.5,329.5C 460.833,342.167 460.833,354.833 459.5,367.5C 458.307,367.97 457.64,368.97 457.5,370.5C 456.754,374.132 456.421,377.798 456.5,381.5C 456.5,382.167 456.5,382.833 456.5,383.5C 454.692,384.918 454.025,386.918 454.5,389.5C 453.527,391.139 452.194,392.473 450.5,393.5C 453.507,385.477 455.507,377.144 456.5,368.5C 455.372,367.738 454.205,367.071 453,366.5C 453.117,361.652 452.951,356.652 452.5,351.5C 453.5,351.5 454.5,351.5 455.5,351.5C 454.854,356.846 455.688,361.846 458,366.5C 458.5,354.171 458.667,341.838 458.5,329.5 Z"/></g>
<g><path style="opacity:1" fill="#f7bd10" d="M 183.5,305.5 C 183.664,308.187 183.497,310.854 183,313.5C 181.113,315.026 180.113,317.026 180,319.5C 179.827,327.674 178.993,335.674 177.5,343.5C 178.11,350.55 179.11,357.55 180.5,364.5C 179.207,367.681 179.374,370.681 181,373.5C 180.855,370.077 182.355,368.077 185.5,367.5C 185.228,371.902 185.561,376.235 186.5,380.5C 185.695,382.472 184.361,383.972 182.5,385C 186.027,389.155 187.361,393.988 186.5,399.5C 184.143,394.065 181.809,388.732 179.5,383.5C 179.5,382.833 179.5,382.167 179.5,381.5C 179.502,376.5 178.502,371.833 176.5,367.5C 176.5,366.833 176.5,366.167 176.5,365.5C 176.191,350.115 176.857,334.781 178.5,319.5C 178.565,316.572 179.232,313.905 180.5,311.5C 181.5,309.5 182.5,307.5 183.5,305.5 Z"/></g>
<g><path style="opacity:1" fill="#e2bf2f" d="M 459.5,367.5 C 459.13,372.422 458.13,377.089 456.5,381.5C 456.421,377.798 456.754,374.132 457.5,370.5C 457.64,368.97 458.307,367.97 459.5,367.5 Z"/></g>
<g><path style="opacity:1" fill="#e4be3c" d="M 176.5,367.5 C 178.502,371.833 179.502,376.5 179.5,381.5C 177.754,377.111 176.754,372.444 176.5,367.5 Z"/></g>
<g><path style="opacity:1" fill="#debc2a" d="M 456.5,383.5 C 456.125,385.698 455.458,387.698 454.5,389.5C 454.025,386.918 454.692,384.918 456.5,383.5 Z"/></g>
<g><path style="opacity:1" fill="#e5bb2f" d="M 454.5,389.5 C 453.63,394.223 451.964,398.556 449.5,402.5C 450.159,399.545 450.492,396.545 450.5,393.5C 452.194,392.473 453.527,391.139 454.5,389.5 Z"/></g>
<g><path style="opacity:1" fill="#e8bd35" d="M 179.5,383.5 C 181.809,388.732 184.143,394.065 186.5,399.5C 186.833,401.5 187.167,403.5 187.5,405.5C 183.869,398.613 181.202,391.28 179.5,383.5 Z"/></g>
<g><path style="opacity:1" fill="#ddb543" d="M 449.5,403.5 C 449.34,405.153 448.674,406.486 447.5,407.5C 447.229,405.62 447.896,404.287 449.5,403.5 Z"/></g>
<g><path style="opacity:1" fill="#e5bd38" d="M 447.5,407.5 C 446.341,411.151 444.674,414.485 442.5,417.5C 442.592,413.316 444.259,409.983 447.5,407.5 Z"/></g>
<g><path style="opacity:1" fill="#f4be1a" d="M 186.5,399.5 C 189.846,403.804 191.846,408.804 192.5,414.5C 194.655,414.372 196.655,414.872 198.5,416C 197.594,417.699 197.261,419.533 197.5,421.5C 196.069,420.22 195.402,418.553 195.5,416.5C 194.5,416.5 193.5,416.5 192.5,416.5C 190.562,412.957 188.895,409.29 187.5,405.5C 187.167,403.5 186.833,401.5 186.5,399.5 Z"/></g>
<g><path style="opacity:1" fill="#ebbc26" d="M 442.5,417.5 C 439.996,422.515 436.996,427.181 433.5,431.5C 433.523,429.073 434.023,426.74 435,424.5C 436.997,421.888 438.997,419.222 441,416.5C 441.383,417.056 441.883,417.389 442.5,417.5 Z"/></g>
<g><path style="opacity:1" fill="#e5b933" d="M 192.5,416.5 C 193.5,416.5 194.5,416.5 195.5,416.5C 195.402,418.553 196.069,420.22 197.5,421.5C 201.34,425.863 204.673,430.53 207.5,435.5C 207.5,436.167 207.5,436.833 207.5,437.5C 201.368,431.359 196.368,424.359 192.5,416.5 Z"/></g>
<g><path style="opacity:1" fill="#e6bb2f" d="M 433.5,431.5 C 430.848,435.482 427.848,439.149 424.5,442.5C 424.5,441.167 424.5,439.833 424.5,438.5C 427.606,437.065 429.606,434.732 430.5,431.5C 431.5,431.5 432.5,431.5 433.5,431.5 Z"/></g>
<g><path style="opacity:1" fill="#dfb343" d="M 207.5,438.5 C 209.833,438.833 211.167,440.167 211.5,442.5C 209.833,441.5 208.5,440.167 207.5,438.5 Z"/></g>
<g><path style="opacity:1" fill="#f6bf12" d="M 214.5,443.5 C 213.609,442.89 212.609,442.557 211.5,442.5C 211.167,440.167 209.833,438.833 207.5,438.5C 207.5,438.167 207.5,437.833 207.5,437.5C 207.5,436.833 207.5,436.167 207.5,435.5C 207.435,435.062 207.601,434.728 208,434.5C 210.156,436.495 212.656,437.828 215.5,438.5C 215.784,440.415 215.451,442.081 214.5,443.5 Z"/></g>
<g><path style="opacity:1" fill="#f6bd14" d="M 424.5,438.5 C 424.5,439.833 424.5,441.167 424.5,442.5C 422.5,445.167 420.167,447.5 417.5,449.5C 417.423,448.25 416.756,447.417 415.5,447C 416.624,446.751 417.624,446.251 418.5,445.5C 415.196,443.007 414.696,440.007 417,436.5C 418.823,441.637 421.323,442.304 424.5,438.5 Z"/></g>
<g><path style="opacity:1" fill="#ecbb39" d="M 211.5,442.5 C 212.609,442.557 213.609,442.89 214.5,443.5C 215.806,444.467 216.473,445.801 216.5,447.5C 214.5,446.167 212.833,444.5 211.5,442.5 Z"/></g>
<g><path style="opacity:1" fill="#e4bd30" d="M 216.5,447.5 C 220.123,449.122 222.789,451.789 224.5,455.5C 221.5,453.167 218.833,450.5 216.5,447.5 Z"/></g>
<g><path style="opacity:1" fill="#ebbd2d" d="M 417.5,449.5 C 412.109,455.224 406.109,460.224 399.5,464.5C 399.5,464.167 399.5,463.833 399.5,463.5C 399.33,462.178 399.663,461.011 400.5,460C 402.631,459.457 404.631,458.624 406.5,457.5C 408.779,454.707 411.446,452.54 414.5,451C 414.167,450.667 413.833,450.333 413.5,450C 414.793,449.51 416.127,449.343 417.5,449.5 Z"/></g>
<g><path style="opacity:1" fill="#ebb92d" d="M 224.5,455.5 C 229.836,455.832 233.503,458.499 235.5,463.5C 231.293,461.565 227.627,458.898 224.5,455.5 Z"/></g>
<g><path style="opacity:1" fill="#efb92d" d="M 235.5,463.5 C 237.89,463.913 240.223,464.579 242.5,465.5C 244.519,466.981 246.519,468.314 248.5,469.5C 250.229,470.236 251.229,471.57 251.5,473.5C 245.486,471.165 240.152,467.831 235.5,463.5 Z"/></g>
<g><path style="opacity:1" fill="#e6bb2d" d="M 399.5,464.5 C 397.381,466.4 395.047,468.066 392.5,469.5C 392.5,468.5 392.5,467.5 392.5,466.5C 394.737,465.551 397.071,464.884 399.5,464.5 Z"/></g>
<g><path style="opacity:1" fill="#fabd09" d="M 399.5,463.5 C 399.5,463.833 399.5,464.167 399.5,464.5C 397.071,464.884 394.737,465.551 392.5,466.5C 392.5,467.5 392.5,468.5 392.5,469.5C 392.167,469.5 391.833,469.5 391.5,469.5C 389.833,469.5 388.167,469.5 386.5,469.5C 386.5,470.5 386.5,471.5 386.5,472.5C 383.673,472.584 381.006,473.25 378.5,474.5C 375.316,475.799 371.983,476.799 368.5,477.5C 367.632,474 367.632,470.667 368.5,467.5C 369.92,469.22 371.253,471.054 372.5,473C 373.333,473.167 374.167,473.333 375,473.5C 377.149,472.701 379.316,471.867 381.5,471C 380.5,470.167 379.5,469.333 378.5,468.5C 379.415,466.02 380.915,465.353 383,466.5C 383.772,465.151 384.939,464.318 386.5,464C 390.821,463.501 395.154,463.334 399.5,463.5 Z"/></g>
<g><path style="opacity:1" fill="#e9bc33" d="M 391.5,469.5 C 390.035,470.737 388.368,471.737 386.5,472.5C 386.5,471.5 386.5,470.5 386.5,469.5C 388.167,469.5 389.833,469.5 391.5,469.5 Z"/></g>
<g><path style="opacity:1" fill="#e1b637" d="M 386.5,472.5 C 383.028,474.738 379.362,476.738 375.5,478.5C 376.211,476.97 377.211,475.637 378.5,474.5C 381.006,473.25 383.673,472.584 386.5,472.5 Z"/></g>
<g><path style="opacity:1" fill="#f5bd14" d="M 271.5,480.5 C 270.167,480.5 268.833,480.5 267.5,480.5C 265.597,480.204 263.93,479.537 262.5,478.5C 260.824,476.166 258.491,475.166 255.5,475.5C 253.847,475.34 252.514,474.674 251.5,473.5C 251.229,471.57 250.229,470.236 248.5,469.5C 249.5,469.5 250.5,469.5 251.5,469.5C 251.5,468.5 251.5,467.5 251.5,466.5C 258.546,466.351 259.213,468.184 253.5,472C 258.372,471.888 262.039,473.888 264.5,478C 266.927,478.902 269.26,479.736 271.5,480.5 Z"/></g>
<g><path style="opacity:1" fill="#e8c140" d="M 255.5,475.5 C 258.491,475.166 260.824,476.166 262.5,478.5C 259.843,478.065 257.509,477.065 255.5,475.5 Z"/></g>
<g><path style="opacity:1" fill="#edbb25" d="M 378.5,474.5 C 377.211,475.637 376.211,476.97 375.5,478.5C 370.299,480.567 364.965,482.234 359.5,483.5C 356.833,483.833 354.167,484.167 351.5,484.5C 356.357,481.661 361.691,479.994 367.5,479.5C 367.863,478.817 368.196,478.15 368.5,477.5C 371.983,476.799 375.316,475.799 378.5,474.5 Z"/></g>
<g><path style="opacity:1" fill="#fabe08" d="M 275.5,481.5 C 278.898,481.142 282.065,481.808 285,483.5C 287.398,482.001 290.065,481.334 293,481.5C 303.797,481.655 314.63,481.822 325.5,482C 325.833,482.333 326.167,482.667 326.5,483C 324.122,483.974 324.456,484.641 327.5,485C 324.833,485.667 322.167,485.667 319.5,485C 318.448,483.881 317.281,483.381 316,483.5C 311.286,485.989 306.62,485.989 302,483.5C 299.467,483.95 297.3,484.95 295.5,486.5C 294.167,486.5 292.833,486.5 291.5,486.5C 291.5,485.5 291.5,484.5 291.5,483.5C 285.73,485.341 280.397,484.674 275.5,481.5 Z"/></g>
<g><path style="opacity:1" fill="#eebc27" d="M 267.5,480.5 C 268.833,480.5 270.167,480.5 271.5,480.5C 272.708,481.234 274.041,481.567 275.5,481.5C 280.397,484.674 285.73,485.341 291.5,483.5C 291.5,484.5 291.5,485.5 291.5,486.5C 292.833,486.5 294.167,486.5 295.5,486.5C 297.993,486.131 298.66,486.797 297.5,488.5C 286.986,487.373 276.986,484.706 267.5,480.5 Z"/></g>
<g><path style="opacity:1" fill="#e4bd3a" d="M 359.5,483.5 C 352.511,486.167 345.178,487.834 337.5,488.5C 341.961,486.363 346.628,485.029 351.5,484.5C 354.167,484.167 356.833,483.833 359.5,483.5 Z"/></g>
</svg>
